<?xml version="1.0" encoding="utf-8" standalone="no"?>
<!DOCTYPE svg PUBLIC "-//W3C//DTD SVG 1.1//EN"
  "http://www.w3.org/Graphics/SVG/1.1/DTD/svg11.dtd">
<svg xmlns:xlink="http://www.w3.org/1999/xlink" width="720pt" height="720pt" viewBox="0 0 720 720" xmlns="http://www.w3.org/2000/svg" version="1.1">
 <metadata>
  <rdf:RDF xmlns:dc="http://purl.org/dc/elements/1.1/" xmlns:cc="http://creativecommons.org/ns#" xmlns:rdf="http://www.w3.org/1999/02/22-rdf-syntax-ns#">
   <cc:Work>
    <dc:type rdf:resource="http://purl.org/dc/dcmitype/StillImage"/>
    <dc:date>2024-10-08T15:33:37.962303</dc:date>
    <dc:format>image/svg+xml</dc:format>
    <dc:creator>
     <cc:Agent>
      <dc:title>Matplotlib v3.9.2, https://matplotlib.org/</dc:title>
     </cc:Agent>
    </dc:creator>
   </cc:Work>
  </rdf:RDF>
 </metadata>
 <defs>
  <style type="text/css">*{stroke-linejoin: round; stroke-linecap: butt}</style>
 </defs>
 <g id="figure_1">
  <g id="patch_1">
   <path d="M 0 720 
L 720 720 
L 720 0 
L 0 0 
z
" style="fill: #ffffff"/>
  </g>
  <g id="axes_1">
   <g id="patch_2">
    <path d="M 90 640.8 
L 648 640.8 
L 648 86.4 
L 90 86.4 
z
" style="fill: #ffffff"/>
   </g>
   <g id="PathCollection_1">
    <defs>
     <path id="m1eb5398615" d="M 0 3 
C 0.795609 3 1.55874 2.683901 2.12132 2.12132 
C 2.683901 1.55874 3 0.795609 3 0 
C 3 -0.795609 2.683901 -1.55874 2.12132 -2.12132 
C 1.55874 -2.683901 0.795609 -3 0 -3 
C -0.795609 -3 -1.55874 -2.683901 -2.12132 -2.12132 
C -2.683901 -1.55874 -3 -0.795609 -3 0 
C -3 0.795609 -2.683901 1.55874 -2.12132 2.12132 
C -1.55874 2.683901 -0.795609 3 0 3 
z
" style="stroke: #0000ff"/>
    </defs>
    <g clip-path="url(#pf539700cbf)">
     <use xlink:href="#m1eb5398615" x="305.493165" y="170.065088" style="fill: #0000ff; stroke: #0000ff"/>
     <use xlink:href="#m1eb5398615" x="411.918237" y="161.341871" style="fill: #0000ff; stroke: #0000ff"/>
     <use xlink:href="#m1eb5398615" x="280.770301" y="266.535631" style="fill: #0000ff; stroke: #0000ff"/>
     <use xlink:href="#m1eb5398615" x="458.756255" y="275.114497" style="fill: #0000ff; stroke: #0000ff"/>
     <use xlink:href="#m1eb5398615" x="260.928595" y="370.671828" style="fill: #0000ff; stroke: #0000ff"/>
     <use xlink:href="#m1eb5398615" x="476.327598" y="360.78482" style="fill: #0000ff; stroke: #0000ff"/>
     <use xlink:href="#m1eb5398615" x="279.37084" y="475.31751" style="fill: #0000ff; stroke: #0000ff"/>
     <use xlink:href="#m1eb5398615" x="462.497108" y="471.518375" style="fill: #0000ff; stroke: #0000ff"/>
     <use xlink:href="#m1eb5398615" x="314.032579" y="550.311132" style="fill: #0000ff; stroke: #0000ff"/>
     <use xlink:href="#m1eb5398615" x="419.873797" y="555.981584" style="fill: #0000ff; stroke: #0000ff"/>
     <use xlink:href="#m1eb5398615" x="219.807449" y="265.88595" style="fill: #0000ff; stroke: #0000ff"/>
     <use xlink:href="#m1eb5398615" x="507.730804" y="245.574364" style="fill: #0000ff; stroke: #0000ff"/>
     <use xlink:href="#m1eb5398615" x="200.216777" y="369.510652" style="fill: #0000ff; stroke: #0000ff"/>
     <use xlink:href="#m1eb5398615" x="533.784157" y="363.460097" style="fill: #0000ff; stroke: #0000ff"/>
     <use xlink:href="#m1eb5398615" x="231.398761" y="491.308553" style="fill: #0000ff; stroke: #0000ff"/>
     <use xlink:href="#m1eb5398615" x="507.15575" y="474.185882" style="fill: #0000ff; stroke: #0000ff"/>
     <use xlink:href="#m1eb5398615" x="379.961779" y="253.600177" style="fill: #0000ff; stroke: #0000ff"/>
     <use xlink:href="#m1eb5398615" x="380.714275" y="369.97548" style="fill: #0000ff; stroke: #0000ff"/>
     <use xlink:href="#m1eb5398615" x="381.803292" y="481.948321" style="fill: #0000ff; stroke: #0000ff"/>
     <use xlink:href="#m1eb5398615" x="302.940194" y="157.685609" style="fill: #0000ff; stroke: #0000ff"/>
     <use xlink:href="#m1eb5398615" x="416.784108" y="153.627857" style="fill: #0000ff; stroke: #0000ff"/>
     <use xlink:href="#m1eb5398615" x="208.229048" y="253.421033" style="fill: #0000ff; stroke: #0000ff"/>
     <use xlink:href="#m1eb5398615" x="529.325557" y="240.238163" style="fill: #0000ff; stroke: #0000ff"/>
     <use xlink:href="#m1eb5398615" x="115.363636" y="332.836378" style="fill: #0000ff; stroke: #0000ff"/>
     <use xlink:href="#m1eb5398615" x="622.636364" y="291.921533" style="fill: #0000ff; stroke: #0000ff"/>
     <use xlink:href="#m1eb5398615" x="171.959668" y="357.402162" style="fill: #0000ff; stroke: #0000ff"/>
     <use xlink:href="#m1eb5398615" x="556.535684" y="337.222916" style="fill: #0000ff; stroke: #0000ff"/>
     <use xlink:href="#m1eb5398615" x="228.51211" y="524.962727" style="fill: #0000ff; stroke: #0000ff"/>
     <use xlink:href="#m1eb5398615" x="505.978977" y="517.629977" style="fill: #0000ff; stroke: #0000ff"/>
     <use xlink:href="#m1eb5398615" x="253.765675" y="205.295379" style="fill: #0000ff; stroke: #0000ff"/>
     <use xlink:href="#m1eb5398615" x="298.274584" y="212.45057" style="fill: #0000ff; stroke: #0000ff"/>
     <use xlink:href="#m1eb5398615" x="165.731675" y="242.365736" style="fill: #0000ff; stroke: #0000ff"/>
     <use xlink:href="#m1eb5398615" x="245.406801" y="276.702394" style="fill: #0000ff; stroke: #0000ff"/>
     <use xlink:href="#m1eb5398615" x="318.920057" y="269.574146" style="fill: #0000ff; stroke: #0000ff"/>
     <use xlink:href="#m1eb5398615" x="146.953381" y="283.866442" style="fill: #0000ff; stroke: #0000ff"/>
     <use xlink:href="#m1eb5398615" x="184.225069" y="303.570162" style="fill: #0000ff; stroke: #0000ff"/>
     <use xlink:href="#m1eb5398615" x="206.08259" y="320.604688" style="fill: #0000ff; stroke: #0000ff"/>
     <use xlink:href="#m1eb5398615" x="225.60539" y="335.611855" style="fill: #0000ff; stroke: #0000ff"/>
     <use xlink:href="#m1eb5398615" x="271.480933" y="317.169024" style="fill: #0000ff; stroke: #0000ff"/>
     <use xlink:href="#m1eb5398615" x="320.07449" y="319.083335" style="fill: #0000ff; stroke: #0000ff"/>
     <use xlink:href="#m1eb5398615" x="371.758791" y="314.546468" style="fill: #0000ff; stroke: #0000ff"/>
     <use xlink:href="#m1eb5398615" x="224.217063" y="372.121025" style="fill: #0000ff; stroke: #0000ff"/>
     <use xlink:href="#m1eb5398615" x="314.967255" y="371.057992" style="fill: #0000ff; stroke: #0000ff"/>
     <use xlink:href="#m1eb5398615" x="168.347526" y="484.351904" style="fill: #0000ff; stroke: #0000ff"/>
     <use xlink:href="#m1eb5398615" x="193.889249" y="483.652681" style="fill: #0000ff; stroke: #0000ff"/>
     <use xlink:href="#m1eb5398615" x="210.881192" y="445.424885" style="fill: #0000ff; stroke: #0000ff"/>
     <use xlink:href="#m1eb5398615" x="231.92928" y="425.495922" style="fill: #0000ff; stroke: #0000ff"/>
     <use xlink:href="#m1eb5398615" x="272.540986" y="427.095889" style="fill: #0000ff; stroke: #0000ff"/>
     <use xlink:href="#m1eb5398615" x="324.498681" y="424.234447" style="fill: #0000ff; stroke: #0000ff"/>
     <use xlink:href="#m1eb5398615" x="201.711714" y="542.357381" style="fill: #0000ff; stroke: #0000ff"/>
     <use xlink:href="#m1eb5398615" x="249.740652" y="476.019056" style="fill: #0000ff; stroke: #0000ff"/>
     <use xlink:href="#m1eb5398615" x="322.782121" y="482.246597" style="fill: #0000ff; stroke: #0000ff"/>
     <use xlink:href="#m1eb5398615" x="268.13657" y="534.246644" style="fill: #0000ff; stroke: #0000ff"/>
     <use xlink:href="#m1eb5398615" x="300.378293" y="514.865281" style="fill: #0000ff; stroke: #0000ff"/>
     <use xlink:href="#m1eb5398615" x="371.990328" y="522.368144" style="fill: #0000ff; stroke: #0000ff"/>
     <use xlink:href="#m1eb5398615" x="367.875122" y="556.853245" style="fill: #0000ff; stroke: #0000ff"/>
     <use xlink:href="#m1eb5398615" x="359.539244" y="158.382398" style="fill: #0000ff; stroke: #0000ff"/>
     <use xlink:href="#m1eb5398615" x="360.908871" y="201.823793" style="fill: #0000ff; stroke: #0000ff"/>
     <use xlink:href="#m1eb5398615" x="431.141765" y="212.043115" style="fill: #0000ff; stroke: #0000ff"/>
     <use xlink:href="#m1eb5398615" x="467.433469" y="199.64332" style="fill: #0000ff; stroke: #0000ff"/>
     <use xlink:href="#m1eb5398615" x="420.126239" y="263.349267" style="fill: #0000ff; stroke: #0000ff"/>
     <use xlink:href="#m1eb5398615" x="490.770826" y="271.922012" style="fill: #0000ff; stroke: #0000ff"/>
     <use xlink:href="#m1eb5398615" x="566.11115" y="233.169415" style="fill: #0000ff; stroke: #0000ff"/>
     <use xlink:href="#m1eb5398615" x="421.65798" y="315.044449" style="fill: #0000ff; stroke: #0000ff"/>
     <use xlink:href="#m1eb5398615" x="466.115882" y="312.81489" style="fill: #0000ff; stroke: #0000ff"/>
     <use xlink:href="#m1eb5398615" x="505.061758" y="312.238317" style="fill: #0000ff; stroke: #0000ff"/>
     <use xlink:href="#m1eb5398615" x="522.32301" y="293.928082" style="fill: #0000ff; stroke: #0000ff"/>
     <use xlink:href="#m1eb5398615" x="545.007999" y="284.38573" style="fill: #0000ff; stroke: #0000ff"/>
     <use xlink:href="#m1eb5398615" x="579.820953" y="267.771138" style="fill: #0000ff; stroke: #0000ff"/>
     <use xlink:href="#m1eb5398615" x="512.707508" y="357.468475" style="fill: #0000ff; stroke: #0000ff"/>
     <use xlink:href="#m1eb5398615" x="429.444473" y="370.408538" style="fill: #0000ff; stroke: #0000ff"/>
     <use xlink:href="#m1eb5398615" x="384.370337" y="432.289952" style="fill: #0000ff; stroke: #0000ff"/>
     <use xlink:href="#m1eb5398615" x="431.135956" y="426.907137" style="fill: #0000ff; stroke: #0000ff"/>
     <use xlink:href="#m1eb5398615" x="478.550613" y="421.568176" style="fill: #0000ff; stroke: #0000ff"/>
     <use xlink:href="#m1eb5398615" x="511.307962" y="416.86194" style="fill: #0000ff; stroke: #0000ff"/>
     <use xlink:href="#m1eb5398615" x="524.903183" y="431.506746" style="fill: #0000ff; stroke: #0000ff"/>
     <use xlink:href="#m1eb5398615" x="557.071606" y="460.647753" style="fill: #0000ff; stroke: #0000ff"/>
     <use xlink:href="#m1eb5398615" x="552.868137" y="506.76486" style="fill: #0000ff; stroke: #0000ff"/>
     <use xlink:href="#m1eb5398615" x="428.083738" y="481.096887" style="fill: #0000ff; stroke: #0000ff"/>
     <use xlink:href="#m1eb5398615" x="490.865417" y="462.184978" style="fill: #0000ff; stroke: #0000ff"/>
     <use xlink:href="#m1eb5398615" x="499.111986" y="573.572143" style="fill: #0000ff; stroke: #0000ff"/>
     <use xlink:href="#m1eb5398615" x="446.602444" y="519.573577" style="fill: #0000ff; stroke: #0000ff"/>
     <use xlink:href="#m1eb5398615" x="483.094445" y="512.120307" style="fill: #0000ff; stroke: #0000ff"/>
    </g>
   </g>
   <g id="matplotlib.axis_1">
    <g id="xtick_1">
     <g id="line2d_1">
      <path d="M 114.428098 640.8 
L 114.428098 86.4 
" clip-path="url(#pf539700cbf)" style="fill: none; stroke: #b0b0b0; stroke-width: 0.8; stroke-linecap: square"/>
     </g>
     <g id="line2d_2">
      <defs>
       <path id="m30b93423ce" d="M 0 0 
L 0 3.5 
" style="stroke: #000000; stroke-width: 0.8"/>
      </defs>
      <g>
       <use xlink:href="#m30b93423ce" x="114.428098" y="640.8" style="stroke: #000000; stroke-width: 0.8"/>
      </g>
     </g>
     <g id="text_1">
      <!-- −15 -->
      <g transform="translate(103.875754 655.398438) scale(0.1 -0.1)">
       <defs>
        <path id="DejaVuSans-2212" d="M 678 2272 
L 4684 2272 
L 4684 1741 
L 678 1741 
L 678 2272 
z
" transform="scale(0.015625)"/>
        <path id="DejaVuSans-31" d="M 794 531 
L 1825 531 
L 1825 4091 
L 703 3866 
L 703 4441 
L 1819 4666 
L 2450 4666 
L 2450 531 
L 3481 531 
L 3481 0 
L 794 0 
L 794 531 
z
" transform="scale(0.015625)"/>
        <path id="DejaVuSans-35" d="M 691 4666 
L 3169 4666 
L 3169 4134 
L 1269 4134 
L 1269 2991 
Q 1406 3038 1543 3061 
Q 1681 3084 1819 3084 
Q 2600 3084 3056 2656 
Q 3513 2228 3513 1497 
Q 3513 744 3044 326 
Q 2575 -91 1722 -91 
Q 1428 -91 1123 -41 
Q 819 9 494 109 
L 494 744 
Q 775 591 1075 516 
Q 1375 441 1709 441 
Q 2250 441 2565 725 
Q 2881 1009 2881 1497 
Q 2881 1984 2565 2268 
Q 2250 2553 1709 2553 
Q 1456 2553 1204 2497 
Q 953 2441 691 2322 
L 691 4666 
z
" transform="scale(0.015625)"/>
       </defs>
       <use xlink:href="#DejaVuSans-2212"/>
       <use xlink:href="#DejaVuSans-31" x="83.789062"/>
       <use xlink:href="#DejaVuSans-35" x="147.412109"/>
      </g>
     </g>
    </g>
    <g id="xtick_2">
     <g id="line2d_3">
      <path d="M 197.652829 640.8 
L 197.652829 86.4 
" clip-path="url(#pf539700cbf)" style="fill: none; stroke: #b0b0b0; stroke-width: 0.8; stroke-linecap: square"/>
     </g>
     <g id="line2d_4">
      <g>
       <use xlink:href="#m30b93423ce" x="197.652829" y="640.8" style="stroke: #000000; stroke-width: 0.8"/>
      </g>
     </g>
     <g id="text_2">
      <!-- −10 -->
      <g transform="translate(187.100485 655.398438) scale(0.1 -0.1)">
       <defs>
        <path id="DejaVuSans-30" d="M 2034 4250 
Q 1547 4250 1301 3770 
Q 1056 3291 1056 2328 
Q 1056 1369 1301 889 
Q 1547 409 2034 409 
Q 2525 409 2770 889 
Q 3016 1369 3016 2328 
Q 3016 3291 2770 3770 
Q 2525 4250 2034 4250 
z
M 2034 4750 
Q 2819 4750 3233 4129 
Q 3647 3509 3647 2328 
Q 3647 1150 3233 529 
Q 2819 -91 2034 -91 
Q 1250 -91 836 529 
Q 422 1150 422 2328 
Q 422 3509 836 4129 
Q 1250 4750 2034 4750 
z
" transform="scale(0.015625)"/>
       </defs>
       <use xlink:href="#DejaVuSans-2212"/>
       <use xlink:href="#DejaVuSans-31" x="83.789062"/>
       <use xlink:href="#DejaVuSans-30" x="147.412109"/>
      </g>
     </g>
    </g>
    <g id="xtick_3">
     <g id="line2d_5">
      <path d="M 280.877559 640.8 
L 280.877559 86.4 
" clip-path="url(#pf539700cbf)" style="fill: none; stroke: #b0b0b0; stroke-width: 0.8; stroke-linecap: square"/>
     </g>
     <g id="line2d_6">
      <g>
       <use xlink:href="#m30b93423ce" x="280.877559" y="640.8" style="stroke: #000000; stroke-width: 0.8"/>
      </g>
     </g>
     <g id="text_3">
      <!-- −5 -->
      <g transform="translate(273.506466 655.398438) scale(0.1 -0.1)">
       <use xlink:href="#DejaVuSans-2212"/>
       <use xlink:href="#DejaVuSans-35" x="83.789062"/>
      </g>
     </g>
    </g>
    <g id="xtick_4">
     <g id="line2d_7">
      <path d="M 364.10229 640.8 
L 364.10229 86.4 
" clip-path="url(#pf539700cbf)" style="fill: none; stroke: #b0b0b0; stroke-width: 0.8; stroke-linecap: square"/>
     </g>
     <g id="line2d_8">
      <g>
       <use xlink:href="#m30b93423ce" x="364.10229" y="640.8" style="stroke: #000000; stroke-width: 0.8"/>
      </g>
     </g>
     <g id="text_4">
      <!-- 0 -->
      <g transform="translate(360.92104 655.398438) scale(0.1 -0.1)">
       <use xlink:href="#DejaVuSans-30"/>
      </g>
     </g>
    </g>
    <g id="xtick_5">
     <g id="line2d_9">
      <path d="M 447.327021 640.8 
L 447.327021 86.4 
" clip-path="url(#pf539700cbf)" style="fill: none; stroke: #b0b0b0; stroke-width: 0.8; stroke-linecap: square"/>
     </g>
     <g id="line2d_10">
      <g>
       <use xlink:href="#m30b93423ce" x="447.327021" y="640.8" style="stroke: #000000; stroke-width: 0.8"/>
      </g>
     </g>
     <g id="text_5">
      <!-- 5 -->
      <g transform="translate(444.145771 655.398438) scale(0.1 -0.1)">
       <use xlink:href="#DejaVuSans-35"/>
      </g>
     </g>
    </g>
    <g id="xtick_6">
     <g id="line2d_11">
      <path d="M 530.551752 640.8 
L 530.551752 86.4 
" clip-path="url(#pf539700cbf)" style="fill: none; stroke: #b0b0b0; stroke-width: 0.8; stroke-linecap: square"/>
     </g>
     <g id="line2d_12">
      <g>
       <use xlink:href="#m30b93423ce" x="530.551752" y="640.8" style="stroke: #000000; stroke-width: 0.8"/>
      </g>
     </g>
     <g id="text_6">
      <!-- 10 -->
      <g transform="translate(524.189252 655.398438) scale(0.1 -0.1)">
       <use xlink:href="#DejaVuSans-31"/>
       <use xlink:href="#DejaVuSans-30" x="63.623047"/>
      </g>
     </g>
    </g>
    <g id="xtick_7">
     <g id="line2d_13">
      <path d="M 613.776483 640.8 
L 613.776483 86.4 
" clip-path="url(#pf539700cbf)" style="fill: none; stroke: #b0b0b0; stroke-width: 0.8; stroke-linecap: square"/>
     </g>
     <g id="line2d_14">
      <g>
       <use xlink:href="#m30b93423ce" x="613.776483" y="640.8" style="stroke: #000000; stroke-width: 0.8"/>
      </g>
     </g>
     <g id="text_7">
      <!-- 15 -->
      <g transform="translate(607.413983 655.398438) scale(0.1 -0.1)">
       <use xlink:href="#DejaVuSans-31"/>
       <use xlink:href="#DejaVuSans-35" x="63.623047"/>
      </g>
     </g>
    </g>
    <g id="text_8">
     <!-- x' -->
     <g transform="translate(364.666406 669.076563) scale(0.1 -0.1)">
      <defs>
       <path id="DejaVuSans-78" d="M 3513 3500 
L 2247 1797 
L 3578 0 
L 2900 0 
L 1881 1375 
L 863 0 
L 184 0 
L 1544 1831 
L 300 3500 
L 978 3500 
L 1906 2253 
L 2834 3500 
L 3513 3500 
z
" transform="scale(0.015625)"/>
       <path id="DejaVuSans-27" d="M 1147 4666 
L 1147 2931 
L 616 2931 
L 616 4666 
L 1147 4666 
z
" transform="scale(0.015625)"/>
      </defs>
      <use xlink:href="#DejaVuSans-78"/>
      <use xlink:href="#DejaVuSans-27" x="59.179688"/>
     </g>
    </g>
   </g>
   <g id="matplotlib.axis_2">
    <g id="ytick_1">
     <g id="line2d_15">
      <path d="M 90 632.569157 
L 648 632.569157 
" clip-path="url(#pf539700cbf)" style="fill: none; stroke: #b0b0b0; stroke-width: 0.8; stroke-linecap: square"/>
     </g>
     <g id="line2d_16">
      <defs>
       <path id="mb631c31ab1" d="M 0 0 
L -3.5 0 
" style="stroke: #000000; stroke-width: 0.8"/>
      </defs>
      <g>
       <use xlink:href="#mb631c31ab1" x="90" y="632.569157" style="stroke: #000000; stroke-width: 0.8"/>
      </g>
     </g>
     <g id="text_9">
      <!-- −15 -->
      <g transform="translate(61.895313 636.368375) scale(0.1 -0.1)">
       <use xlink:href="#DejaVuSans-2212"/>
       <use xlink:href="#DejaVuSans-31" x="83.789062"/>
       <use xlink:href="#DejaVuSans-35" x="147.412109"/>
      </g>
     </g>
    </g>
    <g id="ytick_2">
     <g id="line2d_17">
      <path d="M 90 549.344426 
L 648 549.344426 
" clip-path="url(#pf539700cbf)" style="fill: none; stroke: #b0b0b0; stroke-width: 0.8; stroke-linecap: square"/>
     </g>
     <g id="line2d_18">
      <g>
       <use xlink:href="#mb631c31ab1" x="90" y="549.344426" style="stroke: #000000; stroke-width: 0.8"/>
      </g>
     </g>
     <g id="text_10">
      <!-- −10 -->
      <g transform="translate(61.895313 553.143645) scale(0.1 -0.1)">
       <use xlink:href="#DejaVuSans-2212"/>
       <use xlink:href="#DejaVuSans-31" x="83.789062"/>
       <use xlink:href="#DejaVuSans-30" x="147.412109"/>
      </g>
     </g>
    </g>
    <g id="ytick_3">
     <g id="line2d_19">
      <path d="M 90 466.119695 
L 648 466.119695 
" clip-path="url(#pf539700cbf)" style="fill: none; stroke: #b0b0b0; stroke-width: 0.8; stroke-linecap: square"/>
     </g>
     <g id="line2d_20">
      <g>
       <use xlink:href="#mb631c31ab1" x="90" y="466.119695" style="stroke: #000000; stroke-width: 0.8"/>
      </g>
     </g>
     <g id="text_11">
      <!-- −5 -->
      <g transform="translate(68.257812 469.918914) scale(0.1 -0.1)">
       <use xlink:href="#DejaVuSans-2212"/>
       <use xlink:href="#DejaVuSans-35" x="83.789062"/>
      </g>
     </g>
    </g>
    <g id="ytick_4">
     <g id="line2d_21">
      <path d="M 90 382.894964 
L 648 382.894964 
" clip-path="url(#pf539700cbf)" style="fill: none; stroke: #b0b0b0; stroke-width: 0.8; stroke-linecap: square"/>
     </g>
     <g id="line2d_22">
      <g>
       <use xlink:href="#mb631c31ab1" x="90" y="382.894964" style="stroke: #000000; stroke-width: 0.8"/>
      </g>
     </g>
     <g id="text_12">
      <!-- 0 -->
      <g transform="translate(76.6375 386.694183) scale(0.1 -0.1)">
       <use xlink:href="#DejaVuSans-30"/>
      </g>
     </g>
    </g>
    <g id="ytick_5">
     <g id="line2d_23">
      <path d="M 90 299.670233 
L 648 299.670233 
" clip-path="url(#pf539700cbf)" style="fill: none; stroke: #b0b0b0; stroke-width: 0.8; stroke-linecap: square"/>
     </g>
     <g id="line2d_24">
      <g>
       <use xlink:href="#mb631c31ab1" x="90" y="299.670233" style="stroke: #000000; stroke-width: 0.8"/>
      </g>
     </g>
     <g id="text_13">
      <!-- 5 -->
      <g transform="translate(76.6375 303.469452) scale(0.1 -0.1)">
       <use xlink:href="#DejaVuSans-35"/>
      </g>
     </g>
    </g>
    <g id="ytick_6">
     <g id="line2d_25">
      <path d="M 90 216.445503 
L 648 216.445503 
" clip-path="url(#pf539700cbf)" style="fill: none; stroke: #b0b0b0; stroke-width: 0.8; stroke-linecap: square"/>
     </g>
     <g id="line2d_26">
      <g>
       <use xlink:href="#mb631c31ab1" x="90" y="216.445503" style="stroke: #000000; stroke-width: 0.8"/>
      </g>
     </g>
     <g id="text_14">
      <!-- 10 -->
      <g transform="translate(70.275 220.244721) scale(0.1 -0.1)">
       <use xlink:href="#DejaVuSans-31"/>
       <use xlink:href="#DejaVuSans-30" x="63.623047"/>
      </g>
     </g>
    </g>
    <g id="ytick_7">
     <g id="line2d_27">
      <path d="M 90 133.220772 
L 648 133.220772 
" clip-path="url(#pf539700cbf)" style="fill: none; stroke: #b0b0b0; stroke-width: 0.8; stroke-linecap: square"/>
     </g>
     <g id="line2d_28">
      <g>
       <use xlink:href="#mb631c31ab1" x="90" y="133.220772" style="stroke: #000000; stroke-width: 0.8"/>
      </g>
     </g>
     <g id="text_15">
      <!-- 15 -->
      <g transform="translate(70.275 137.019991) scale(0.1 -0.1)">
       <use xlink:href="#DejaVuSans-31"/>
       <use xlink:href="#DejaVuSans-35" x="63.623047"/>
      </g>
     </g>
    </g>
    <g id="text_16">
     <!-- y' -->
     <g transform="translate(55.815625 367.933594) rotate(-90) scale(0.1 -0.1)">
      <defs>
       <path id="DejaVuSans-79" d="M 2059 -325 
Q 1816 -950 1584 -1140 
Q 1353 -1331 966 -1331 
L 506 -1331 
L 506 -850 
L 844 -850 
Q 1081 -850 1212 -737 
Q 1344 -625 1503 -206 
L 1606 56 
L 191 3500 
L 800 3500 
L 1894 763 
L 2988 3500 
L 3597 3500 
L 2059 -325 
z
" transform="scale(0.015625)"/>
      </defs>
      <use xlink:href="#DejaVuSans-79"/>
      <use xlink:href="#DejaVuSans-27" x="59.179688"/>
     </g>
    </g>
   </g>
   <g id="patch_3">
    <path d="M 90 640.8 
L 90 86.4 
" style="fill: none; stroke: #000000; stroke-width: 0.8; stroke-linejoin: miter; stroke-linecap: square"/>
   </g>
   <g id="patch_4">
    <path d="M 648 640.8 
L 648 86.4 
" style="fill: none; stroke: #000000; stroke-width: 0.8; stroke-linejoin: miter; stroke-linecap: square"/>
   </g>
   <g id="patch_5">
    <path d="M 90 640.8 
L 648 640.8 
" style="fill: none; stroke: #000000; stroke-width: 0.8; stroke-linejoin: miter; stroke-linecap: square"/>
   </g>
   <g id="patch_6">
    <path d="M 90 86.4 
L 648 86.4 
" style="fill: none; stroke: #000000; stroke-width: 0.8; stroke-linejoin: miter; stroke-linecap: square"/>
   </g>
   <g id="text_17">
    <!-- Fp1 -->
    <g transform="translate(283.338165 167.569463) scale(0.12 -0.12)">
     <defs>
      <path id="DejaVuSans-46" d="M 628 4666 
L 3309 4666 
L 3309 4134 
L 1259 4134 
L 1259 2759 
L 3109 2759 
L 3109 2228 
L 1259 2228 
L 1259 0 
L 628 0 
L 628 4666 
z
" transform="scale(0.015625)"/>
      <path id="DejaVuSans-70" d="M 1159 525 
L 1159 -1331 
L 581 -1331 
L 581 3500 
L 1159 3500 
L 1159 2969 
Q 1341 3281 1617 3432 
Q 1894 3584 2278 3584 
Q 2916 3584 3314 3078 
Q 3713 2572 3713 1747 
Q 3713 922 3314 415 
Q 2916 -91 2278 -91 
Q 1894 -91 1617 61 
Q 1341 213 1159 525 
z
M 3116 1747 
Q 3116 2381 2855 2742 
Q 2594 3103 2138 3103 
Q 1681 3103 1420 2742 
Q 1159 2381 1159 1747 
Q 1159 1113 1420 752 
Q 1681 391 2138 391 
Q 2594 391 2855 752 
Q 3116 1113 3116 1747 
z
" transform="scale(0.015625)"/>
     </defs>
     <use xlink:href="#DejaVuSans-46"/>
     <use xlink:href="#DejaVuSans-70" x="57.519531"/>
     <use xlink:href="#DejaVuSans-31" x="120.996094"/>
    </g>
   </g>
   <g id="text_18">
    <!-- Fp2 -->
    <g transform="translate(389.763237 158.846246) scale(0.12 -0.12)">
     <defs>
      <path id="DejaVuSans-32" d="M 1228 531 
L 3431 531 
L 3431 0 
L 469 0 
L 469 531 
Q 828 903 1448 1529 
Q 2069 2156 2228 2338 
Q 2531 2678 2651 2914 
Q 2772 3150 2772 3378 
Q 2772 3750 2511 3984 
Q 2250 4219 1831 4219 
Q 1534 4219 1204 4116 
Q 875 4013 500 3803 
L 500 4441 
Q 881 4594 1212 4672 
Q 1544 4750 1819 4750 
Q 2544 4750 2975 4387 
Q 3406 4025 3406 3419 
Q 3406 3131 3298 2873 
Q 3191 2616 2906 2266 
Q 2828 2175 2409 1742 
Q 1991 1309 1228 531 
z
" transform="scale(0.015625)"/>
     </defs>
     <use xlink:href="#DejaVuSans-46"/>
     <use xlink:href="#DejaVuSans-70" x="57.519531"/>
     <use xlink:href="#DejaVuSans-32" x="120.996094"/>
    </g>
   </g>
   <g id="text_19">
    <!-- F3 -->
    <g transform="translate(266.233426 264.040006) scale(0.12 -0.12)">
     <defs>
      <path id="DejaVuSans-33" d="M 2597 2516 
Q 3050 2419 3304 2112 
Q 3559 1806 3559 1356 
Q 3559 666 3084 287 
Q 2609 -91 1734 -91 
Q 1441 -91 1130 -33 
Q 819 25 488 141 
L 488 750 
Q 750 597 1062 519 
Q 1375 441 1716 441 
Q 2309 441 2620 675 
Q 2931 909 2931 1356 
Q 2931 1769 2642 2001 
Q 2353 2234 1838 2234 
L 1294 2234 
L 1294 2753 
L 1863 2753 
Q 2328 2753 2575 2939 
Q 2822 3125 2822 3475 
Q 2822 3834 2567 4026 
Q 2313 4219 1838 4219 
Q 1578 4219 1281 4162 
Q 984 4106 628 3988 
L 628 4550 
Q 988 4650 1302 4700 
Q 1616 4750 1894 4750 
Q 2613 4750 3031 4423 
Q 3450 4097 3450 3541 
Q 3450 3153 3228 2886 
Q 3006 2619 2597 2516 
z
" transform="scale(0.015625)"/>
     </defs>
     <use xlink:href="#DejaVuSans-46"/>
     <use xlink:href="#DejaVuSans-33" x="57.519531"/>
    </g>
   </g>
   <g id="text_20">
    <!-- F4 -->
    <g transform="translate(444.21938 272.618872) scale(0.12 -0.12)">
     <defs>
      <path id="DejaVuSans-34" d="M 2419 4116 
L 825 1625 
L 2419 1625 
L 2419 4116 
z
M 2253 4666 
L 3047 4666 
L 3047 1625 
L 3713 1625 
L 3713 1100 
L 3047 1100 
L 3047 0 
L 2419 0 
L 2419 1100 
L 313 1100 
L 313 1709 
L 2253 4666 
z
" transform="scale(0.015625)"/>
     </defs>
     <use xlink:href="#DejaVuSans-46"/>
     <use xlink:href="#DejaVuSans-34" x="57.519531"/>
    </g>
   </g>
   <g id="text_21">
    <!-- C3 -->
    <g transform="translate(244.91422 368.176203) scale(0.12 -0.12)">
     <defs>
      <path id="DejaVuSans-43" d="M 4122 4306 
L 4122 3641 
Q 3803 3938 3442 4084 
Q 3081 4231 2675 4231 
Q 1875 4231 1450 3742 
Q 1025 3253 1025 2328 
Q 1025 1406 1450 917 
Q 1875 428 2675 428 
Q 3081 428 3442 575 
Q 3803 722 4122 1019 
L 4122 359 
Q 3791 134 3420 21 
Q 3050 -91 2638 -91 
Q 1578 -91 968 557 
Q 359 1206 359 2328 
Q 359 3453 968 4101 
Q 1578 4750 2638 4750 
Q 3056 4750 3426 4639 
Q 3797 4528 4122 4306 
z
" transform="scale(0.015625)"/>
     </defs>
     <use xlink:href="#DejaVuSans-43"/>
     <use xlink:href="#DejaVuSans-33" x="69.824219"/>
    </g>
   </g>
   <g id="text_22">
    <!-- C4 -->
    <g transform="translate(460.313223 358.289195) scale(0.12 -0.12)">
     <use xlink:href="#DejaVuSans-43"/>
     <use xlink:href="#DejaVuSans-34" x="69.824219"/>
    </g>
   </g>
   <g id="text_23">
    <!-- P3 -->
    <g transform="translate(264.500215 472.821885) scale(0.12 -0.12)">
     <defs>
      <path id="DejaVuSans-50" d="M 1259 4147 
L 1259 2394 
L 2053 2394 
Q 2494 2394 2734 2622 
Q 2975 2850 2975 3272 
Q 2975 3691 2734 3919 
Q 2494 4147 2053 4147 
L 1259 4147 
z
M 628 4666 
L 2053 4666 
Q 2838 4666 3239 4311 
Q 3641 3956 3641 3272 
Q 3641 2581 3239 2228 
Q 2838 1875 2053 1875 
L 1259 1875 
L 1259 0 
L 628 0 
L 628 4666 
z
" transform="scale(0.015625)"/>
     </defs>
     <use xlink:href="#DejaVuSans-50"/>
     <use xlink:href="#DejaVuSans-33" x="60.302734"/>
    </g>
   </g>
   <g id="text_24">
    <!-- P4 -->
    <g transform="translate(447.626483 469.02275) scale(0.12 -0.12)">
     <use xlink:href="#DejaVuSans-50"/>
     <use xlink:href="#DejaVuSans-34" x="60.302734"/>
    </g>
   </g>
   <g id="text_25">
    <!-- O1 -->
    <g transform="translate(296.951329 547.815507) scale(0.12 -0.12)">
     <defs>
      <path id="DejaVuSans-4f" d="M 2522 4238 
Q 1834 4238 1429 3725 
Q 1025 3213 1025 2328 
Q 1025 1447 1429 934 
Q 1834 422 2522 422 
Q 3209 422 3611 934 
Q 4013 1447 4013 2328 
Q 4013 3213 3611 3725 
Q 3209 4238 2522 4238 
z
M 2522 4750 
Q 3503 4750 4090 4092 
Q 4678 3434 4678 2328 
Q 4678 1225 4090 567 
Q 3503 -91 2522 -91 
Q 1538 -91 948 565 
Q 359 1222 359 2328 
Q 359 3434 948 4092 
Q 1538 4750 2522 4750 
z
" transform="scale(0.015625)"/>
     </defs>
     <use xlink:href="#DejaVuSans-4f"/>
     <use xlink:href="#DejaVuSans-31" x="78.710938"/>
    </g>
   </g>
   <g id="text_26">
    <!-- O2 -->
    <g transform="translate(402.792547 553.485959) scale(0.12 -0.12)">
     <use xlink:href="#DejaVuSans-4f"/>
     <use xlink:href="#DejaVuSans-32" x="78.710938"/>
    </g>
   </g>
   <g id="text_27">
    <!-- F7 -->
    <g transform="translate(205.270574 263.390325) scale(0.12 -0.12)">
     <defs>
      <path id="DejaVuSans-37" d="M 525 4666 
L 3525 4666 
L 3525 4397 
L 1831 0 
L 1172 0 
L 2766 4134 
L 525 4134 
L 525 4666 
z
" transform="scale(0.015625)"/>
     </defs>
     <use xlink:href="#DejaVuSans-46"/>
     <use xlink:href="#DejaVuSans-37" x="57.519531"/>
    </g>
   </g>
   <g id="text_28">
    <!-- F8 -->
    <g transform="translate(493.193929 243.078739) scale(0.12 -0.12)">
     <defs>
      <path id="DejaVuSans-38" d="M 2034 2216 
Q 1584 2216 1326 1975 
Q 1069 1734 1069 1313 
Q 1069 891 1326 650 
Q 1584 409 2034 409 
Q 2484 409 2743 651 
Q 3003 894 3003 1313 
Q 3003 1734 2745 1975 
Q 2488 2216 2034 2216 
z
M 1403 2484 
Q 997 2584 770 2862 
Q 544 3141 544 3541 
Q 544 4100 942 4425 
Q 1341 4750 2034 4750 
Q 2731 4750 3128 4425 
Q 3525 4100 3525 3541 
Q 3525 3141 3298 2862 
Q 3072 2584 2669 2484 
Q 3125 2378 3379 2068 
Q 3634 1759 3634 1313 
Q 3634 634 3220 271 
Q 2806 -91 2034 -91 
Q 1263 -91 848 271 
Q 434 634 434 1313 
Q 434 1759 690 2068 
Q 947 2378 1403 2484 
z
M 1172 3481 
Q 1172 3119 1398 2916 
Q 1625 2713 2034 2713 
Q 2441 2713 2670 2916 
Q 2900 3119 2900 3481 
Q 2900 3844 2670 4047 
Q 2441 4250 2034 4250 
Q 1625 4250 1398 4047 
Q 1172 3844 1172 3481 
z
" transform="scale(0.015625)"/>
     </defs>
     <use xlink:href="#DejaVuSans-46"/>
     <use xlink:href="#DejaVuSans-38" x="57.519531"/>
    </g>
   </g>
   <g id="text_29">
    <!-- T3 -->
    <g transform="translate(185.252402 367.015027) scale(0.12 -0.12)">
     <defs>
      <path id="DejaVuSans-54" d="M -19 4666 
L 3928 4666 
L 3928 4134 
L 2272 4134 
L 2272 0 
L 1638 0 
L 1638 4134 
L -19 4134 
L -19 4666 
z
" transform="scale(0.015625)"/>
     </defs>
     <use xlink:href="#DejaVuSans-54"/>
     <use xlink:href="#DejaVuSans-33" x="61.083984"/>
    </g>
   </g>
   <g id="text_30">
    <!-- T4 -->
    <g transform="translate(518.819782 360.964472) scale(0.12 -0.12)">
     <use xlink:href="#DejaVuSans-54"/>
     <use xlink:href="#DejaVuSans-34" x="61.083984"/>
    </g>
   </g>
   <g id="text_31">
    <!-- T5 -->
    <g transform="translate(216.434386 488.812928) scale(0.12 -0.12)">
     <use xlink:href="#DejaVuSans-54"/>
     <use xlink:href="#DejaVuSans-35" x="61.083984"/>
    </g>
   </g>
   <g id="text_32">
    <!-- T6 -->
    <g transform="translate(492.191375 471.690257) scale(0.12 -0.12)">
     <defs>
      <path id="DejaVuSans-36" d="M 2113 2584 
Q 1688 2584 1439 2293 
Q 1191 2003 1191 1497 
Q 1191 994 1439 701 
Q 1688 409 2113 409 
Q 2538 409 2786 701 
Q 3034 994 3034 1497 
Q 3034 2003 2786 2293 
Q 2538 2584 2113 2584 
z
M 3366 4563 
L 3366 3988 
Q 3128 4100 2886 4159 
Q 2644 4219 2406 4219 
Q 1781 4219 1451 3797 
Q 1122 3375 1075 2522 
Q 1259 2794 1537 2939 
Q 1816 3084 2150 3084 
Q 2853 3084 3261 2657 
Q 3669 2231 3669 1497 
Q 3669 778 3244 343 
Q 2819 -91 2113 -91 
Q 1303 -91 875 529 
Q 447 1150 447 2328 
Q 447 3434 972 4092 
Q 1497 4750 2381 4750 
Q 2619 4750 2861 4703 
Q 3103 4656 3366 4563 
z
" transform="scale(0.015625)"/>
     </defs>
     <use xlink:href="#DejaVuSans-54"/>
     <use xlink:href="#DejaVuSans-36" x="61.083984"/>
    </g>
   </g>
   <g id="text_33">
    <!-- Fz -->
    <g transform="translate(366.761779 251.104552) scale(0.12 -0.12)">
     <defs>
      <path id="DejaVuSans-7a" d="M 353 3500 
L 3084 3500 
L 3084 2975 
L 922 459 
L 3084 459 
L 3084 0 
L 275 0 
L 275 525 
L 2438 3041 
L 353 3041 
L 353 3500 
z
" transform="scale(0.015625)"/>
     </defs>
     <use xlink:href="#DejaVuSans-46"/>
     <use xlink:href="#DejaVuSans-7a" x="57.519531"/>
    </g>
   </g>
   <g id="text_34">
    <!-- Cz -->
    <g transform="translate(366.036775 367.479855) scale(0.12 -0.12)">
     <use xlink:href="#DejaVuSans-43"/>
     <use xlink:href="#DejaVuSans-7a" x="69.824219"/>
    </g>
   </g>
   <g id="text_35">
    <!-- Pz -->
    <g transform="translate(368.269542 479.452696) scale(0.12 -0.12)">
     <use xlink:href="#DejaVuSans-50"/>
     <use xlink:href="#DejaVuSans-7a" x="60.302734"/>
    </g>
   </g>
   <g id="text_36">
    <!-- SO1 -->
    <g transform="translate(278.240819 155.189984) scale(0.12 -0.12)">
     <defs>
      <path id="DejaVuSans-53" d="M 3425 4513 
L 3425 3897 
Q 3066 4069 2747 4153 
Q 2428 4238 2131 4238 
Q 1616 4238 1336 4038 
Q 1056 3838 1056 3469 
Q 1056 3159 1242 3001 
Q 1428 2844 1947 2747 
L 2328 2669 
Q 3034 2534 3370 2195 
Q 3706 1856 3706 1288 
Q 3706 609 3251 259 
Q 2797 -91 1919 -91 
Q 1588 -91 1214 -16 
Q 841 59 441 206 
L 441 856 
Q 825 641 1194 531 
Q 1563 422 1919 422 
Q 2459 422 2753 634 
Q 3047 847 3047 1241 
Q 3047 1584 2836 1778 
Q 2625 1972 2144 2069 
L 1759 2144 
Q 1053 2284 737 2584 
Q 422 2884 422 3419 
Q 422 4038 858 4394 
Q 1294 4750 2059 4750 
Q 2388 4750 2728 4690 
Q 3069 4631 3425 4513 
z
" transform="scale(0.015625)"/>
     </defs>
     <use xlink:href="#DejaVuSans-53"/>
     <use xlink:href="#DejaVuSans-4f" x="63.476562"/>
     <use xlink:href="#DejaVuSans-31" x="142.1875"/>
    </g>
   </g>
   <g id="text_37">
    <!-- SO2 -->
    <g transform="translate(392.084733 151.132232) scale(0.12 -0.12)">
     <use xlink:href="#DejaVuSans-53"/>
     <use xlink:href="#DejaVuSans-4f" x="63.476562"/>
     <use xlink:href="#DejaVuSans-32" x="142.1875"/>
    </g>
   </g>
   <g id="text_38">
    <!-- F9 -->
    <g transform="translate(193.692173 250.925408) scale(0.12 -0.12)">
     <defs>
      <path id="DejaVuSans-39" d="M 703 97 
L 703 672 
Q 941 559 1184 500 
Q 1428 441 1663 441 
Q 2288 441 2617 861 
Q 2947 1281 2994 2138 
Q 2813 1869 2534 1725 
Q 2256 1581 1919 1581 
Q 1219 1581 811 2004 
Q 403 2428 403 3163 
Q 403 3881 828 4315 
Q 1253 4750 1959 4750 
Q 2769 4750 3195 4129 
Q 3622 3509 3622 2328 
Q 3622 1225 3098 567 
Q 2575 -91 1691 -91 
Q 1453 -91 1209 -44 
Q 966 3 703 97 
z
M 1959 2075 
Q 2384 2075 2632 2365 
Q 2881 2656 2881 3163 
Q 2881 3666 2632 3958 
Q 2384 4250 1959 4250 
Q 1534 4250 1286 3958 
Q 1038 3666 1038 3163 
Q 1038 2656 1286 2365 
Q 1534 2075 1959 2075 
z
" transform="scale(0.015625)"/>
     </defs>
     <use xlink:href="#DejaVuSans-46"/>
     <use xlink:href="#DejaVuSans-39" x="57.519531"/>
    </g>
   </g>
   <g id="text_39">
    <!-- F10 -->
    <g transform="translate(507.153682 237.742538) scale(0.12 -0.12)">
     <use xlink:href="#DejaVuSans-46"/>
     <use xlink:href="#DejaVuSans-31" x="57.519531"/>
     <use xlink:href="#DejaVuSans-30" x="121.142578"/>
    </g>
   </g>
   <g id="text_40">
    <!-- Zy1 -->
    <g transform="translate(92.406136 330.340753) scale(0.12 -0.12)">
     <defs>
      <path id="DejaVuSans-5a" d="M 359 4666 
L 4025 4666 
L 4025 4184 
L 1075 531 
L 4097 531 
L 4097 0 
L 288 0 
L 288 481 
L 3238 4134 
L 359 4134 
L 359 4666 
z
" transform="scale(0.015625)"/>
     </defs>
     <use xlink:href="#DejaVuSans-5a"/>
     <use xlink:href="#DejaVuSans-79" x="68.505859"/>
     <use xlink:href="#DejaVuSans-31" x="127.685547"/>
    </g>
   </g>
   <g id="text_41">
    <!-- Zy2 -->
    <g transform="translate(599.678864 289.425908) scale(0.12 -0.12)">
     <use xlink:href="#DejaVuSans-5a"/>
     <use xlink:href="#DejaVuSans-79" x="68.505859"/>
     <use xlink:href="#DejaVuSans-32" x="127.685547"/>
    </g>
   </g>
   <g id="text_42">
    <!-- T9 -->
    <g transform="translate(156.995293 354.906537) scale(0.12 -0.12)">
     <use xlink:href="#DejaVuSans-54"/>
     <use xlink:href="#DejaVuSans-39" x="61.083984"/>
    </g>
   </g>
   <g id="text_43">
    <!-- T10 -->
    <g transform="translate(533.936309 334.727291) scale(0.12 -0.12)">
     <use xlink:href="#DejaVuSans-54"/>
     <use xlink:href="#DejaVuSans-31" x="61.083984"/>
     <use xlink:href="#DejaVuSans-30" x="124.707031"/>
    </g>
   </g>
   <g id="text_44">
    <!-- P9 -->
    <g transform="translate(213.641485 522.467102) scale(0.12 -0.12)">
     <use xlink:href="#DejaVuSans-50"/>
     <use xlink:href="#DejaVuSans-39" x="60.302734"/>
    </g>
   </g>
   <g id="text_45">
    <!-- P10 -->
    <g transform="translate(483.473352 515.134352) scale(0.12 -0.12)">
     <use xlink:href="#DejaVuSans-50"/>
     <use xlink:href="#DejaVuSans-31" x="60.302734"/>
     <use xlink:href="#DejaVuSans-30" x="123.925781"/>
    </g>
   </g>
   <g id="text_46">
    <!-- AF7 -->
    <g transform="translate(231.02005 202.799754) scale(0.12 -0.12)">
     <defs>
      <path id="DejaVuSans-41" d="M 2188 4044 
L 1331 1722 
L 3047 1722 
L 2188 4044 
z
M 1831 4666 
L 2547 4666 
L 4325 0 
L 3669 0 
L 3244 1197 
L 1141 1197 
L 716 0 
L 50 0 
L 1831 4666 
z
" transform="scale(0.015625)"/>
     </defs>
     <use xlink:href="#DejaVuSans-41"/>
     <use xlink:href="#DejaVuSans-46" x="68.408203"/>
     <use xlink:href="#DejaVuSans-37" x="125.927734"/>
    </g>
   </g>
   <g id="text_47">
    <!-- AF3 -->
    <g transform="translate(275.528959 209.954945) scale(0.12 -0.12)">
     <use xlink:href="#DejaVuSans-41"/>
     <use xlink:href="#DejaVuSans-46" x="68.408203"/>
     <use xlink:href="#DejaVuSans-33" x="125.927734"/>
    </g>
   </g>
   <g id="text_48">
    <!-- F11 -->
    <g transform="translate(143.5598 239.870111) scale(0.12 -0.12)">
     <use xlink:href="#DejaVuSans-46"/>
     <use xlink:href="#DejaVuSans-31" x="57.519531"/>
     <use xlink:href="#DejaVuSans-31" x="121.142578"/>
    </g>
   </g>
   <g id="text_49">
    <!-- F5 -->
    <g transform="translate(230.869926 274.206769) scale(0.12 -0.12)">
     <use xlink:href="#DejaVuSans-46"/>
     <use xlink:href="#DejaVuSans-35" x="57.519531"/>
    </g>
   </g>
   <g id="text_50">
    <!-- F1 -->
    <g transform="translate(304.383182 267.078521) scale(0.12 -0.12)">
     <use xlink:href="#DejaVuSans-46"/>
     <use xlink:href="#DejaVuSans-31" x="57.519531"/>
    </g>
   </g>
   <g id="text_51">
    <!-- FT11 -->
    <g transform="translate(117.662131 281.370817) scale(0.12 -0.12)">
     <use xlink:href="#DejaVuSans-46"/>
     <use xlink:href="#DejaVuSans-54" x="55.769531"/>
     <use xlink:href="#DejaVuSans-31" x="116.853516"/>
     <use xlink:href="#DejaVuSans-31" x="180.476562"/>
    </g>
   </g>
   <g id="text_52">
    <!-- FT9 -->
    <g transform="translate(162.568819 301.074537) scale(0.12 -0.12)">
     <use xlink:href="#DejaVuSans-46"/>
     <use xlink:href="#DejaVuSans-54" x="55.769531"/>
     <use xlink:href="#DejaVuSans-39" x="116.853516"/>
    </g>
   </g>
   <g id="text_53">
    <!-- FT7 -->
    <g transform="translate(184.42634 318.109063) scale(0.12 -0.12)">
     <use xlink:href="#DejaVuSans-46"/>
     <use xlink:href="#DejaVuSans-54" x="55.769531"/>
     <use xlink:href="#DejaVuSans-37" x="116.853516"/>
    </g>
   </g>
   <g id="text_54">
    <!-- FC5 -->
    <g transform="translate(202.68914 333.11623) scale(0.12 -0.12)">
     <use xlink:href="#DejaVuSans-46"/>
     <use xlink:href="#DejaVuSans-43" x="57.519531"/>
     <use xlink:href="#DejaVuSans-35" x="127.34375"/>
    </g>
   </g>
   <g id="text_55">
    <!-- FC3 -->
    <g transform="translate(248.564683 314.673399) scale(0.12 -0.12)">
     <use xlink:href="#DejaVuSans-46"/>
     <use xlink:href="#DejaVuSans-43" x="57.519531"/>
     <use xlink:href="#DejaVuSans-33" x="127.34375"/>
    </g>
   </g>
   <g id="text_56">
    <!-- FC1 -->
    <g transform="translate(297.15824 316.58771) scale(0.12 -0.12)">
     <use xlink:href="#DejaVuSans-46"/>
     <use xlink:href="#DejaVuSans-43" x="57.519531"/>
     <use xlink:href="#DejaVuSans-31" x="127.34375"/>
    </g>
   </g>
   <g id="text_57">
    <!-- FCz -->
    <g transform="translate(350.179416 312.050843) scale(0.12 -0.12)">
     <use xlink:href="#DejaVuSans-46"/>
     <use xlink:href="#DejaVuSans-43" x="57.519531"/>
     <use xlink:href="#DejaVuSans-7a" x="127.34375"/>
    </g>
   </g>
   <g id="text_58">
    <!-- C5 -->
    <g transform="translate(208.202688 369.6254) scale(0.12 -0.12)">
     <use xlink:href="#DejaVuSans-43"/>
     <use xlink:href="#DejaVuSans-35" x="69.824219"/>
    </g>
   </g>
   <g id="text_59">
    <!-- C1 -->
    <g transform="translate(298.95288 368.562367) scale(0.12 -0.12)">
     <use xlink:href="#DejaVuSans-43"/>
     <use xlink:href="#DejaVuSans-31" x="69.824219"/>
    </g>
   </g>
   <g id="text_60">
    <!-- TP11 -->
    <g transform="translate(138.512526 481.856279) scale(0.12 -0.12)">
     <use xlink:href="#DejaVuSans-54"/>
     <use xlink:href="#DejaVuSans-50" x="61.083984"/>
     <use xlink:href="#DejaVuSans-31" x="121.386719"/>
     <use xlink:href="#DejaVuSans-31" x="185.009766"/>
    </g>
   </g>
   <g id="text_61">
    <!-- TP9 -->
    <g transform="translate(171.689249 481.157056) scale(0.12 -0.12)">
     <use xlink:href="#DejaVuSans-54"/>
     <use xlink:href="#DejaVuSans-50" x="61.083984"/>
     <use xlink:href="#DejaVuSans-39" x="121.386719"/>
    </g>
   </g>
   <g id="text_62">
    <!-- TP7 -->
    <g transform="translate(188.681192 442.92926) scale(0.12 -0.12)">
     <use xlink:href="#DejaVuSans-54"/>
     <use xlink:href="#DejaVuSans-50" x="61.083984"/>
     <use xlink:href="#DejaVuSans-37" x="121.386719"/>
    </g>
   </g>
   <g id="text_63">
    <!-- CP5 -->
    <g transform="translate(208.67928 423.000297) scale(0.12 -0.12)">
     <use xlink:href="#DejaVuSans-43"/>
     <use xlink:href="#DejaVuSans-50" x="69.824219"/>
     <use xlink:href="#DejaVuSans-35" x="130.126953"/>
    </g>
   </g>
   <g id="text_64">
    <!-- CP3 -->
    <g transform="translate(249.290986 424.600264) scale(0.12 -0.12)">
     <use xlink:href="#DejaVuSans-43"/>
     <use xlink:href="#DejaVuSans-50" x="69.824219"/>
     <use xlink:href="#DejaVuSans-33" x="130.126953"/>
    </g>
   </g>
   <g id="text_65">
    <!-- CP1 -->
    <g transform="translate(301.248681 421.738822) scale(0.12 -0.12)">
     <use xlink:href="#DejaVuSans-43"/>
     <use xlink:href="#DejaVuSans-50" x="69.824219"/>
     <use xlink:href="#DejaVuSans-31" x="130.126953"/>
    </g>
   </g>
   <g id="text_66">
    <!-- P11 -->
    <g transform="translate(179.206089 539.861756) scale(0.12 -0.12)">
     <use xlink:href="#DejaVuSans-50"/>
     <use xlink:href="#DejaVuSans-31" x="60.302734"/>
     <use xlink:href="#DejaVuSans-31" x="123.925781"/>
    </g>
   </g>
   <g id="text_67">
    <!-- P5 -->
    <g transform="translate(234.870027 473.523431) scale(0.12 -0.12)">
     <use xlink:href="#DejaVuSans-50"/>
     <use xlink:href="#DejaVuSans-35" x="60.302734"/>
    </g>
   </g>
   <g id="text_68">
    <!-- P1 -->
    <g transform="translate(307.911496 479.750972) scale(0.12 -0.12)">
     <use xlink:href="#DejaVuSans-50"/>
     <use xlink:href="#DejaVuSans-31" x="60.302734"/>
    </g>
   </g>
   <g id="text_69">
    <!-- PO7 -->
    <g transform="translate(243.819695 531.751019) scale(0.12 -0.12)">
     <use xlink:href="#DejaVuSans-50"/>
     <use xlink:href="#DejaVuSans-4f" x="60.302734"/>
     <use xlink:href="#DejaVuSans-37" x="139.013672"/>
    </g>
   </g>
   <g id="text_70">
    <!-- PO3 -->
    <g transform="translate(276.061418 512.369656) scale(0.12 -0.12)">
     <use xlink:href="#DejaVuSans-50"/>
     <use xlink:href="#DejaVuSans-4f" x="60.302734"/>
     <use xlink:href="#DejaVuSans-33" x="139.013672"/>
    </g>
   </g>
   <g id="text_71">
    <!-- POz -->
    <g transform="translate(349.010328 519.872519) scale(0.12 -0.12)">
     <use xlink:href="#DejaVuSans-50"/>
     <use xlink:href="#DejaVuSans-4f" x="60.302734"/>
     <use xlink:href="#DejaVuSans-7a" x="139.013672"/>
    </g>
   </g>
   <g id="text_72">
    <!-- Oz -->
    <g transform="translate(352.130747 554.35762) scale(0.12 -0.12)">
     <use xlink:href="#DejaVuSans-4f"/>
     <use xlink:href="#DejaVuSans-7a" x="78.710938"/>
    </g>
   </g>
   <g id="text_73">
    <!-- Fpz -->
    <g transform="translate(338.721119 155.886773) scale(0.12 -0.12)">
     <use xlink:href="#DejaVuSans-46"/>
     <use xlink:href="#DejaVuSans-70" x="57.519531"/>
     <use xlink:href="#DejaVuSans-7a" x="120.996094"/>
    </g>
   </g>
   <g id="text_74">
    <!-- AFz -->
    <g transform="translate(339.500121 199.328168) scale(0.12 -0.12)">
     <use xlink:href="#DejaVuSans-41"/>
     <use xlink:href="#DejaVuSans-46" x="68.408203"/>
     <use xlink:href="#DejaVuSans-7a" x="125.927734"/>
    </g>
   </g>
   <g id="text_75">
    <!-- AF4 -->
    <g transform="translate(408.39614 209.54749) scale(0.12 -0.12)">
     <use xlink:href="#DejaVuSans-41"/>
     <use xlink:href="#DejaVuSans-46" x="68.408203"/>
     <use xlink:href="#DejaVuSans-34" x="125.927734"/>
    </g>
   </g>
   <g id="text_76">
    <!-- AF8 -->
    <g transform="translate(444.687844 197.147695) scale(0.12 -0.12)">
     <use xlink:href="#DejaVuSans-41"/>
     <use xlink:href="#DejaVuSans-46" x="68.408203"/>
     <use xlink:href="#DejaVuSans-38" x="125.927734"/>
    </g>
   </g>
   <g id="text_77">
    <!-- F2 -->
    <g transform="translate(405.589364 260.853642) scale(0.12 -0.12)">
     <use xlink:href="#DejaVuSans-46"/>
     <use xlink:href="#DejaVuSans-32" x="57.519531"/>
    </g>
   </g>
   <g id="text_78">
    <!-- F6 -->
    <g transform="translate(476.233951 269.426387) scale(0.12 -0.12)">
     <use xlink:href="#DejaVuSans-46"/>
     <use xlink:href="#DejaVuSans-36" x="57.519531"/>
    </g>
   </g>
   <g id="text_79">
    <!-- F12 -->
    <g transform="translate(543.939275 230.67379) scale(0.12 -0.12)">
     <use xlink:href="#DejaVuSans-46"/>
     <use xlink:href="#DejaVuSans-31" x="57.519531"/>
     <use xlink:href="#DejaVuSans-32" x="121.142578"/>
    </g>
   </g>
   <g id="text_80">
    <!-- FC2 -->
    <g transform="translate(398.74173 312.548824) scale(0.12 -0.12)">
     <use xlink:href="#DejaVuSans-46"/>
     <use xlink:href="#DejaVuSans-43" x="57.519531"/>
     <use xlink:href="#DejaVuSans-32" x="127.34375"/>
    </g>
   </g>
   <g id="text_81">
    <!-- FC4 -->
    <g transform="translate(443.199632 310.319265) scale(0.12 -0.12)">
     <use xlink:href="#DejaVuSans-46"/>
     <use xlink:href="#DejaVuSans-43" x="57.519531"/>
     <use xlink:href="#DejaVuSans-34" x="127.34375"/>
    </g>
   </g>
   <g id="text_82">
    <!-- FC6 -->
    <g transform="translate(482.145508 309.742692) scale(0.12 -0.12)">
     <use xlink:href="#DejaVuSans-46"/>
     <use xlink:href="#DejaVuSans-43" x="57.519531"/>
     <use xlink:href="#DejaVuSans-36" x="127.34375"/>
    </g>
   </g>
   <g id="text_83">
    <!-- FT8 -->
    <g transform="translate(500.66676 291.432457) scale(0.12 -0.12)">
     <use xlink:href="#DejaVuSans-46"/>
     <use xlink:href="#DejaVuSans-54" x="55.769531"/>
     <use xlink:href="#DejaVuSans-38" x="116.853516"/>
    </g>
   </g>
   <g id="text_84">
    <!-- FT10 -->
    <g transform="translate(515.716749 281.890105) scale(0.12 -0.12)">
     <use xlink:href="#DejaVuSans-46"/>
     <use xlink:href="#DejaVuSans-54" x="55.769531"/>
     <use xlink:href="#DejaVuSans-31" x="116.853516"/>
     <use xlink:href="#DejaVuSans-30" x="180.476562"/>
    </g>
   </g>
   <g id="text_85">
    <!-- FT12 -->
    <g transform="translate(550.529703 265.275513) scale(0.12 -0.12)">
     <use xlink:href="#DejaVuSans-46"/>
     <use xlink:href="#DejaVuSans-54" x="55.769531"/>
     <use xlink:href="#DejaVuSans-31" x="116.853516"/>
     <use xlink:href="#DejaVuSans-32" x="180.476562"/>
    </g>
   </g>
   <g id="text_86">
    <!-- C6 -->
    <g transform="translate(496.693133 354.97285) scale(0.12 -0.12)">
     <use xlink:href="#DejaVuSans-43"/>
     <use xlink:href="#DejaVuSans-36" x="69.824219"/>
    </g>
   </g>
   <g id="text_87">
    <!-- C2 -->
    <g transform="translate(413.430098 367.912913) scale(0.12 -0.12)">
     <use xlink:href="#DejaVuSans-43"/>
     <use xlink:href="#DejaVuSans-32" x="69.824219"/>
    </g>
   </g>
   <g id="text_88">
    <!-- CPz -->
    <g transform="translate(362.457212 429.794327) scale(0.12 -0.12)">
     <use xlink:href="#DejaVuSans-43"/>
     <use xlink:href="#DejaVuSans-50" x="69.824219"/>
     <use xlink:href="#DejaVuSans-7a" x="130.126953"/>
    </g>
   </g>
   <g id="text_89">
    <!-- CP2 -->
    <g transform="translate(407.885956 424.411512) scale(0.12 -0.12)">
     <use xlink:href="#DejaVuSans-43"/>
     <use xlink:href="#DejaVuSans-50" x="69.824219"/>
     <use xlink:href="#DejaVuSans-32" x="130.126953"/>
    </g>
   </g>
   <g id="text_90">
    <!-- CP4 -->
    <g transform="translate(455.300613 419.072551) scale(0.12 -0.12)">
     <use xlink:href="#DejaVuSans-43"/>
     <use xlink:href="#DejaVuSans-50" x="69.824219"/>
     <use xlink:href="#DejaVuSans-34" x="130.126953"/>
    </g>
   </g>
   <g id="text_91">
    <!-- CP6 -->
    <g transform="translate(488.057962 414.366315) scale(0.12 -0.12)">
     <use xlink:href="#DejaVuSans-43"/>
     <use xlink:href="#DejaVuSans-50" x="69.824219"/>
     <use xlink:href="#DejaVuSans-36" x="130.126953"/>
    </g>
   </g>
   <g id="text_92">
    <!-- TP8 -->
    <g transform="translate(502.703183 429.011121) scale(0.12 -0.12)">
     <use xlink:href="#DejaVuSans-54"/>
     <use xlink:href="#DejaVuSans-50" x="61.083984"/>
     <use xlink:href="#DejaVuSans-38" x="121.386719"/>
    </g>
   </g>
   <g id="text_93">
    <!-- TP10 -->
    <g transform="translate(527.236606 458.152128) scale(0.12 -0.12)">
     <use xlink:href="#DejaVuSans-54"/>
     <use xlink:href="#DejaVuSans-50" x="61.083984"/>
     <use xlink:href="#DejaVuSans-31" x="121.386719"/>
     <use xlink:href="#DejaVuSans-30" x="185.009766"/>
    </g>
   </g>
   <g id="text_94">
    <!-- TP12 -->
    <g transform="translate(523.033137 504.269235) scale(0.12 -0.12)">
     <use xlink:href="#DejaVuSans-54"/>
     <use xlink:href="#DejaVuSans-50" x="61.083984"/>
     <use xlink:href="#DejaVuSans-31" x="121.386719"/>
     <use xlink:href="#DejaVuSans-32" x="185.009766"/>
    </g>
   </g>
   <g id="text_95">
    <!-- P2 -->
    <g transform="translate(413.213113 478.601262) scale(0.12 -0.12)">
     <use xlink:href="#DejaVuSans-50"/>
     <use xlink:href="#DejaVuSans-32" x="60.302734"/>
    </g>
   </g>
   <g id="text_96">
    <!-- P6 -->
    <g transform="translate(475.994792 459.689353) scale(0.12 -0.12)">
     <use xlink:href="#DejaVuSans-50"/>
     <use xlink:href="#DejaVuSans-36" x="60.302734"/>
    </g>
   </g>
   <g id="text_97">
    <!-- P12 -->
    <g transform="translate(476.606361 571.076518) scale(0.12 -0.12)">
     <use xlink:href="#DejaVuSans-50"/>
     <use xlink:href="#DejaVuSans-31" x="60.302734"/>
     <use xlink:href="#DejaVuSans-32" x="123.925781"/>
    </g>
   </g>
   <g id="text_98">
    <!-- PO4 -->
    <g transform="translate(422.285569 517.077952) scale(0.12 -0.12)">
     <use xlink:href="#DejaVuSans-50"/>
     <use xlink:href="#DejaVuSans-4f" x="60.302734"/>
     <use xlink:href="#DejaVuSans-34" x="139.013672"/>
    </g>
   </g>
   <g id="text_99">
    <!-- PO8 -->
    <g transform="translate(458.77757 509.624682) scale(0.12 -0.12)">
     <use xlink:href="#DejaVuSans-50"/>
     <use xlink:href="#DejaVuSans-4f" x="60.302734"/>
     <use xlink:href="#DejaVuSans-38" x="139.013672"/>
    </g>
   </g>
   <g id="text_100">
    <!-- Azimuthal Equidistant Projection of 3D Head Coordinates -->
    <g transform="translate(198.042188 80.4) scale(0.12 -0.12)">
     <defs>
      <path id="DejaVuSans-69" d="M 603 3500 
L 1178 3500 
L 1178 0 
L 603 0 
L 603 3500 
z
M 603 4863 
L 1178 4863 
L 1178 4134 
L 603 4134 
L 603 4863 
z
" transform="scale(0.015625)"/>
      <path id="DejaVuSans-6d" d="M 3328 2828 
Q 3544 3216 3844 3400 
Q 4144 3584 4550 3584 
Q 5097 3584 5394 3201 
Q 5691 2819 5691 2113 
L 5691 0 
L 5113 0 
L 5113 2094 
Q 5113 2597 4934 2840 
Q 4756 3084 4391 3084 
Q 3944 3084 3684 2787 
Q 3425 2491 3425 1978 
L 3425 0 
L 2847 0 
L 2847 2094 
Q 2847 2600 2669 2842 
Q 2491 3084 2119 3084 
Q 1678 3084 1418 2786 
Q 1159 2488 1159 1978 
L 1159 0 
L 581 0 
L 581 3500 
L 1159 3500 
L 1159 2956 
Q 1356 3278 1631 3431 
Q 1906 3584 2284 3584 
Q 2666 3584 2933 3390 
Q 3200 3197 3328 2828 
z
" transform="scale(0.015625)"/>
      <path id="DejaVuSans-75" d="M 544 1381 
L 544 3500 
L 1119 3500 
L 1119 1403 
Q 1119 906 1312 657 
Q 1506 409 1894 409 
Q 2359 409 2629 706 
Q 2900 1003 2900 1516 
L 2900 3500 
L 3475 3500 
L 3475 0 
L 2900 0 
L 2900 538 
Q 2691 219 2414 64 
Q 2138 -91 1772 -91 
Q 1169 -91 856 284 
Q 544 659 544 1381 
z
M 1991 3584 
L 1991 3584 
z
" transform="scale(0.015625)"/>
      <path id="DejaVuSans-74" d="M 1172 4494 
L 1172 3500 
L 2356 3500 
L 2356 3053 
L 1172 3053 
L 1172 1153 
Q 1172 725 1289 603 
Q 1406 481 1766 481 
L 2356 481 
L 2356 0 
L 1766 0 
Q 1100 0 847 248 
Q 594 497 594 1153 
L 594 3053 
L 172 3053 
L 172 3500 
L 594 3500 
L 594 4494 
L 1172 4494 
z
" transform="scale(0.015625)"/>
      <path id="DejaVuSans-68" d="M 3513 2113 
L 3513 0 
L 2938 0 
L 2938 2094 
Q 2938 2591 2744 2837 
Q 2550 3084 2163 3084 
Q 1697 3084 1428 2787 
Q 1159 2491 1159 1978 
L 1159 0 
L 581 0 
L 581 4863 
L 1159 4863 
L 1159 2956 
Q 1366 3272 1645 3428 
Q 1925 3584 2291 3584 
Q 2894 3584 3203 3211 
Q 3513 2838 3513 2113 
z
" transform="scale(0.015625)"/>
      <path id="DejaVuSans-61" d="M 2194 1759 
Q 1497 1759 1228 1600 
Q 959 1441 959 1056 
Q 959 750 1161 570 
Q 1363 391 1709 391 
Q 2188 391 2477 730 
Q 2766 1069 2766 1631 
L 2766 1759 
L 2194 1759 
z
M 3341 1997 
L 3341 0 
L 2766 0 
L 2766 531 
Q 2569 213 2275 61 
Q 1981 -91 1556 -91 
Q 1019 -91 701 211 
Q 384 513 384 1019 
Q 384 1609 779 1909 
Q 1175 2209 1959 2209 
L 2766 2209 
L 2766 2266 
Q 2766 2663 2505 2880 
Q 2244 3097 1772 3097 
Q 1472 3097 1187 3025 
Q 903 2953 641 2809 
L 641 3341 
Q 956 3463 1253 3523 
Q 1550 3584 1831 3584 
Q 2591 3584 2966 3190 
Q 3341 2797 3341 1997 
z
" transform="scale(0.015625)"/>
      <path id="DejaVuSans-6c" d="M 603 4863 
L 1178 4863 
L 1178 0 
L 603 0 
L 603 4863 
z
" transform="scale(0.015625)"/>
      <path id="DejaVuSans-20" transform="scale(0.015625)"/>
      <path id="DejaVuSans-45" d="M 628 4666 
L 3578 4666 
L 3578 4134 
L 1259 4134 
L 1259 2753 
L 3481 2753 
L 3481 2222 
L 1259 2222 
L 1259 531 
L 3634 531 
L 3634 0 
L 628 0 
L 628 4666 
z
" transform="scale(0.015625)"/>
      <path id="DejaVuSans-71" d="M 947 1747 
Q 947 1113 1208 752 
Q 1469 391 1925 391 
Q 2381 391 2643 752 
Q 2906 1113 2906 1747 
Q 2906 2381 2643 2742 
Q 2381 3103 1925 3103 
Q 1469 3103 1208 2742 
Q 947 2381 947 1747 
z
M 2906 525 
Q 2725 213 2448 61 
Q 2172 -91 1784 -91 
Q 1150 -91 751 415 
Q 353 922 353 1747 
Q 353 2572 751 3078 
Q 1150 3584 1784 3584 
Q 2172 3584 2448 3432 
Q 2725 3281 2906 2969 
L 2906 3500 
L 3481 3500 
L 3481 -1331 
L 2906 -1331 
L 2906 525 
z
" transform="scale(0.015625)"/>
      <path id="DejaVuSans-64" d="M 2906 2969 
L 2906 4863 
L 3481 4863 
L 3481 0 
L 2906 0 
L 2906 525 
Q 2725 213 2448 61 
Q 2172 -91 1784 -91 
Q 1150 -91 751 415 
Q 353 922 353 1747 
Q 353 2572 751 3078 
Q 1150 3584 1784 3584 
Q 2172 3584 2448 3432 
Q 2725 3281 2906 2969 
z
M 947 1747 
Q 947 1113 1208 752 
Q 1469 391 1925 391 
Q 2381 391 2643 752 
Q 2906 1113 2906 1747 
Q 2906 2381 2643 2742 
Q 2381 3103 1925 3103 
Q 1469 3103 1208 2742 
Q 947 2381 947 1747 
z
" transform="scale(0.015625)"/>
      <path id="DejaVuSans-73" d="M 2834 3397 
L 2834 2853 
Q 2591 2978 2328 3040 
Q 2066 3103 1784 3103 
Q 1356 3103 1142 2972 
Q 928 2841 928 2578 
Q 928 2378 1081 2264 
Q 1234 2150 1697 2047 
L 1894 2003 
Q 2506 1872 2764 1633 
Q 3022 1394 3022 966 
Q 3022 478 2636 193 
Q 2250 -91 1575 -91 
Q 1294 -91 989 -36 
Q 684 19 347 128 
L 347 722 
Q 666 556 975 473 
Q 1284 391 1588 391 
Q 1994 391 2212 530 
Q 2431 669 2431 922 
Q 2431 1156 2273 1281 
Q 2116 1406 1581 1522 
L 1381 1569 
Q 847 1681 609 1914 
Q 372 2147 372 2553 
Q 372 3047 722 3315 
Q 1072 3584 1716 3584 
Q 2034 3584 2315 3537 
Q 2597 3491 2834 3397 
z
" transform="scale(0.015625)"/>
      <path id="DejaVuSans-6e" d="M 3513 2113 
L 3513 0 
L 2938 0 
L 2938 2094 
Q 2938 2591 2744 2837 
Q 2550 3084 2163 3084 
Q 1697 3084 1428 2787 
Q 1159 2491 1159 1978 
L 1159 0 
L 581 0 
L 581 3500 
L 1159 3500 
L 1159 2956 
Q 1366 3272 1645 3428 
Q 1925 3584 2291 3584 
Q 2894 3584 3203 3211 
Q 3513 2838 3513 2113 
z
" transform="scale(0.015625)"/>
      <path id="DejaVuSans-72" d="M 2631 2963 
Q 2534 3019 2420 3045 
Q 2306 3072 2169 3072 
Q 1681 3072 1420 2755 
Q 1159 2438 1159 1844 
L 1159 0 
L 581 0 
L 581 3500 
L 1159 3500 
L 1159 2956 
Q 1341 3275 1631 3429 
Q 1922 3584 2338 3584 
Q 2397 3584 2469 3576 
Q 2541 3569 2628 3553 
L 2631 2963 
z
" transform="scale(0.015625)"/>
      <path id="DejaVuSans-6f" d="M 1959 3097 
Q 1497 3097 1228 2736 
Q 959 2375 959 1747 
Q 959 1119 1226 758 
Q 1494 397 1959 397 
Q 2419 397 2687 759 
Q 2956 1122 2956 1747 
Q 2956 2369 2687 2733 
Q 2419 3097 1959 3097 
z
M 1959 3584 
Q 2709 3584 3137 3096 
Q 3566 2609 3566 1747 
Q 3566 888 3137 398 
Q 2709 -91 1959 -91 
Q 1206 -91 779 398 
Q 353 888 353 1747 
Q 353 2609 779 3096 
Q 1206 3584 1959 3584 
z
" transform="scale(0.015625)"/>
      <path id="DejaVuSans-6a" d="M 603 3500 
L 1178 3500 
L 1178 -63 
Q 1178 -731 923 -1031 
Q 669 -1331 103 -1331 
L -116 -1331 
L -116 -844 
L 38 -844 
Q 366 -844 484 -692 
Q 603 -541 603 -63 
L 603 3500 
z
M 603 4863 
L 1178 4863 
L 1178 4134 
L 603 4134 
L 603 4863 
z
" transform="scale(0.015625)"/>
      <path id="DejaVuSans-65" d="M 3597 1894 
L 3597 1613 
L 953 1613 
Q 991 1019 1311 708 
Q 1631 397 2203 397 
Q 2534 397 2845 478 
Q 3156 559 3463 722 
L 3463 178 
Q 3153 47 2828 -22 
Q 2503 -91 2169 -91 
Q 1331 -91 842 396 
Q 353 884 353 1716 
Q 353 2575 817 3079 
Q 1281 3584 2069 3584 
Q 2775 3584 3186 3129 
Q 3597 2675 3597 1894 
z
M 3022 2063 
Q 3016 2534 2758 2815 
Q 2500 3097 2075 3097 
Q 1594 3097 1305 2825 
Q 1016 2553 972 2059 
L 3022 2063 
z
" transform="scale(0.015625)"/>
      <path id="DejaVuSans-63" d="M 3122 3366 
L 3122 2828 
Q 2878 2963 2633 3030 
Q 2388 3097 2138 3097 
Q 1578 3097 1268 2742 
Q 959 2388 959 1747 
Q 959 1106 1268 751 
Q 1578 397 2138 397 
Q 2388 397 2633 464 
Q 2878 531 3122 666 
L 3122 134 
Q 2881 22 2623 -34 
Q 2366 -91 2075 -91 
Q 1284 -91 818 406 
Q 353 903 353 1747 
Q 353 2603 823 3093 
Q 1294 3584 2113 3584 
Q 2378 3584 2631 3529 
Q 2884 3475 3122 3366 
z
" transform="scale(0.015625)"/>
      <path id="DejaVuSans-66" d="M 2375 4863 
L 2375 4384 
L 1825 4384 
Q 1516 4384 1395 4259 
Q 1275 4134 1275 3809 
L 1275 3500 
L 2222 3500 
L 2222 3053 
L 1275 3053 
L 1275 0 
L 697 0 
L 697 3053 
L 147 3053 
L 147 3500 
L 697 3500 
L 697 3744 
Q 697 4328 969 4595 
Q 1241 4863 1831 4863 
L 2375 4863 
z
" transform="scale(0.015625)"/>
      <path id="DejaVuSans-44" d="M 1259 4147 
L 1259 519 
L 2022 519 
Q 2988 519 3436 956 
Q 3884 1394 3884 2338 
Q 3884 3275 3436 3711 
Q 2988 4147 2022 4147 
L 1259 4147 
z
M 628 4666 
L 1925 4666 
Q 3281 4666 3915 4102 
Q 4550 3538 4550 2338 
Q 4550 1131 3912 565 
Q 3275 0 1925 0 
L 628 0 
L 628 4666 
z
" transform="scale(0.015625)"/>
      <path id="DejaVuSans-48" d="M 628 4666 
L 1259 4666 
L 1259 2753 
L 3553 2753 
L 3553 4666 
L 4184 4666 
L 4184 0 
L 3553 0 
L 3553 2222 
L 1259 2222 
L 1259 0 
L 628 0 
L 628 4666 
z
" transform="scale(0.015625)"/>
     </defs>
     <use xlink:href="#DejaVuSans-41"/>
     <use xlink:href="#DejaVuSans-7a" x="68.408203"/>
     <use xlink:href="#DejaVuSans-69" x="120.898438"/>
     <use xlink:href="#DejaVuSans-6d" x="148.681641"/>
     <use xlink:href="#DejaVuSans-75" x="246.09375"/>
     <use xlink:href="#DejaVuSans-74" x="309.472656"/>
     <use xlink:href="#DejaVuSans-68" x="348.681641"/>
     <use xlink:href="#DejaVuSans-61" x="412.060547"/>
     <use xlink:href="#DejaVuSans-6c" x="473.339844"/>
     <use xlink:href="#DejaVuSans-20" x="501.123047"/>
     <use xlink:href="#DejaVuSans-45" x="532.910156"/>
     <use xlink:href="#DejaVuSans-71" x="596.09375"/>
     <use xlink:href="#DejaVuSans-75" x="659.570312"/>
     <use xlink:href="#DejaVuSans-69" x="722.949219"/>
     <use xlink:href="#DejaVuSans-64" x="750.732422"/>
     <use xlink:href="#DejaVuSans-69" x="814.208984"/>
     <use xlink:href="#DejaVuSans-73" x="841.992188"/>
     <use xlink:href="#DejaVuSans-74" x="894.091797"/>
     <use xlink:href="#DejaVuSans-61" x="933.300781"/>
     <use xlink:href="#DejaVuSans-6e" x="994.580078"/>
     <use xlink:href="#DejaVuSans-74" x="1057.958984"/>
     <use xlink:href="#DejaVuSans-20" x="1097.167969"/>
     <use xlink:href="#DejaVuSans-50" x="1128.955078"/>
     <use xlink:href="#DejaVuSans-72" x="1187.507812"/>
     <use xlink:href="#DejaVuSans-6f" x="1226.371094"/>
     <use xlink:href="#DejaVuSans-6a" x="1287.552734"/>
     <use xlink:href="#DejaVuSans-65" x="1315.335938"/>
     <use xlink:href="#DejaVuSans-63" x="1376.859375"/>
     <use xlink:href="#DejaVuSans-74" x="1431.839844"/>
     <use xlink:href="#DejaVuSans-69" x="1471.048828"/>
     <use xlink:href="#DejaVuSans-6f" x="1498.832031"/>
     <use xlink:href="#DejaVuSans-6e" x="1560.013672"/>
     <use xlink:href="#DejaVuSans-20" x="1623.392578"/>
     <use xlink:href="#DejaVuSans-6f" x="1655.179688"/>
     <use xlink:href="#DejaVuSans-66" x="1716.361328"/>
     <use xlink:href="#DejaVuSans-20" x="1751.566406"/>
     <use xlink:href="#DejaVuSans-33" x="1783.353516"/>
     <use xlink:href="#DejaVuSans-44" x="1846.976562"/>
     <use xlink:href="#DejaVuSans-20" x="1923.978516"/>
     <use xlink:href="#DejaVuSans-48" x="1955.765625"/>
     <use xlink:href="#DejaVuSans-65" x="2030.960938"/>
     <use xlink:href="#DejaVuSans-61" x="2092.484375"/>
     <use xlink:href="#DejaVuSans-64" x="2153.763672"/>
     <use xlink:href="#DejaVuSans-20" x="2217.240234"/>
     <use xlink:href="#DejaVuSans-43" x="2249.027344"/>
     <use xlink:href="#DejaVuSans-6f" x="2318.851562"/>
     <use xlink:href="#DejaVuSans-6f" x="2380.033203"/>
     <use xlink:href="#DejaVuSans-72" x="2441.214844"/>
     <use xlink:href="#DejaVuSans-64" x="2480.578125"/>
     <use xlink:href="#DejaVuSans-69" x="2544.054688"/>
     <use xlink:href="#DejaVuSans-6e" x="2571.837891"/>
     <use xlink:href="#DejaVuSans-61" x="2635.216797"/>
     <use xlink:href="#DejaVuSans-74" x="2696.496094"/>
     <use xlink:href="#DejaVuSans-65" x="2735.705078"/>
     <use xlink:href="#DejaVuSans-73" x="2797.228516"/>
    </g>
   </g>
  </g>
 </g>
 <defs>
  <clipPath id="pf539700cbf">
   <rect x="90" y="86.4" width="558" height="554.4"/>
  </clipPath>
 </defs>
</svg>
